<?xml version="1.0" encoding="UTF-8" standalone="no"?>
<!DOCTYPE svg PUBLIC "-//W3C//DTD SVG 1.1//EN"
 "http://www.w3.org/Graphics/SVG/1.1/DTD/svg11.dtd">
<!-- Generated by graphviz version 2.43.0 (0)
 -->
<!-- Title: snakemake_dag Pages: 1 -->
<svg width="143pt" height="332pt"
 viewBox="0.00 0.00 143.00 332.00" xmlns="http://www.w3.org/2000/svg" xmlns:xlink="http://www.w3.org/1999/xlink">
<g id="graph0" class="graph" transform="scale(1 1) rotate(0) translate(4 328)">
<title>snakemake_dag</title>
<polygon fill="white" stroke="transparent" points="-4,4 -4,-328 139,-328 139,4 -4,4"/>
<!-- 0 -->
<g id="node1" class="node">
<title>0</title>
<path fill="none" stroke="#88d856" stroke-width="2" stroke-dasharray="5,2" d="M91,-36C91,-36 39,-36 39,-36 33,-36 27,-30 27,-24 27,-24 27,-12 27,-12 27,-6 33,0 39,0 39,0 91,0 91,0 97,0 103,-6 103,-12 103,-12 103,-24 103,-24 103,-30 97,-36 91,-36"/>
<text text-anchor="middle" x="65" y="-15.5" font-family="sans" font-size="10.00">MaybeBayes</text>
</g>
<!-- 1 -->
<g id="node2" class="node">
<title>1</title>
<path fill="none" stroke="#56c1d8" stroke-width="2" stroke-dasharray="5,2" d="M56,-108C56,-108 12,-108 12,-108 6,-108 0,-102 0,-96 0,-96 0,-84 0,-84 0,-78 6,-72 12,-72 12,-72 56,-72 56,-72 62,-72 68,-78 68,-84 68,-84 68,-96 68,-96 68,-102 62,-108 56,-108"/>
<text text-anchor="middle" x="34" y="-87.5" font-family="sans" font-size="10.00">MaybeSort</text>
</g>
<!-- 1&#45;&gt;0 -->
<g id="edge1" class="edge">
<title>1&#45;&gt;0</title>
<path fill="none" stroke="grey" stroke-width="2" d="M41.66,-71.7C45.19,-63.73 49.46,-54.1 53.37,-45.26"/>
<polygon fill="grey" stroke="grey" stroke-width="2" points="56.58,-46.67 57.43,-36.1 50.18,-43.83 56.58,-46.67"/>
</g>
<!-- 2 -->
<g id="node3" class="node">
<title>2</title>
<path fill="none" stroke="#56d88a" stroke-width="2" stroke-dasharray="5,2" d="M113.5,-180C113.5,-180 78.5,-180 78.5,-180 72.5,-180 66.5,-174 66.5,-168 66.5,-168 66.5,-156 66.5,-156 66.5,-150 72.5,-144 78.5,-144 78.5,-144 113.5,-144 113.5,-144 119.5,-144 125.5,-150 125.5,-156 125.5,-156 125.5,-168 125.5,-168 125.5,-174 119.5,-180 113.5,-180"/>
<text text-anchor="middle" x="96" y="-159.5" font-family="sans" font-size="10.00">checkRes</text>
</g>
<!-- 2&#45;&gt;0 -->
<g id="edge2" class="edge">
<title>2&#45;&gt;0</title>
<path fill="none" stroke="grey" stroke-width="2" d="M92.42,-143.92C88.65,-126 82.5,-97 77,-72 75.15,-63.58 73.09,-54.41 71.21,-46.11"/>
<polygon fill="grey" stroke="grey" stroke-width="2" points="74.58,-45.15 68.94,-36.17 67.75,-46.7 74.58,-45.15"/>
</g>
<!-- 2&#45;&gt;1 -->
<g id="edge3" class="edge">
<title>2&#45;&gt;1</title>
<path fill="none" stroke="grey" stroke-width="2" d="M80.67,-143.7C73.24,-135.3 64.18,-125.07 56.02,-115.86"/>
<polygon fill="grey" stroke="grey" stroke-width="2" points="58.4,-113.27 49.15,-108.1 53.16,-117.91 58.4,-113.27"/>
</g>
<!-- 3 -->
<g id="node4" class="node">
<title>3</title>
<path fill="none" stroke="#d85656" stroke-width="2" stroke-dasharray="5,2" d="M123,-252C123,-252 73,-252 73,-252 67,-252 61,-246 61,-240 61,-240 61,-228 61,-228 61,-222 67,-216 73,-216 73,-216 123,-216 123,-216 129,-216 135,-222 135,-228 135,-228 135,-240 135,-240 135,-246 129,-252 123,-252"/>
<text text-anchor="middle" x="98" y="-231.5" font-family="sans" font-size="10.00">SamConvert</text>
</g>
<!-- 3&#45;&gt;2 -->
<g id="edge5" class="edge">
<title>3&#45;&gt;2</title>
<path fill="none" stroke="grey" stroke-width="2" d="M97.51,-215.7C97.29,-207.98 97.02,-198.71 96.77,-190.11"/>
<polygon fill="grey" stroke="grey" stroke-width="2" points="100.27,-190 96.49,-180.1 93.28,-190.2 100.27,-190"/>
</g>
<!-- 4 -->
<g id="node5" class="node">
<title>4</title>
<path fill="none" stroke="#d8bc56" stroke-width="2" stroke-dasharray="5,2" d="M80.5,-324C80.5,-324 49.5,-324 49.5,-324 43.5,-324 37.5,-318 37.5,-312 37.5,-312 37.5,-300 37.5,-300 37.5,-294 43.5,-288 49.5,-288 49.5,-288 80.5,-288 80.5,-288 86.5,-288 92.5,-294 92.5,-300 92.5,-300 92.5,-312 92.5,-312 92.5,-318 86.5,-324 80.5,-324"/>
<text text-anchor="middle" x="65" y="-309" font-family="sans" font-size="10.00">BWA</text>
<text text-anchor="middle" x="65" y="-298" font-family="sans" font-size="10.00">res: tmp</text>
</g>
<!-- 4&#45;&gt;1 -->
<g id="edge4" class="edge">
<title>4&#45;&gt;1</title>
<path fill="none" stroke="grey" stroke-width="2" d="M60.22,-287.93C57.47,-277.6 54.16,-264.13 52,-252 43.72,-205.43 38.55,-150.57 35.98,-118.4"/>
<polygon fill="grey" stroke="grey" stroke-width="2" points="39.44,-117.72 35.18,-108.02 32.46,-118.26 39.44,-117.72"/>
</g>
<!-- 4&#45;&gt;3 -->
<g id="edge6" class="edge">
<title>4&#45;&gt;3</title>
<path fill="none" stroke="grey" stroke-width="2" d="M73.16,-287.7C76.91,-279.73 81.45,-270.1 85.62,-261.26"/>
<polygon fill="grey" stroke="grey" stroke-width="2" points="88.84,-262.64 89.94,-252.1 82.51,-259.66 88.84,-262.64"/>
</g>
</g>
</svg>
